HIERARCHY
ROOT Hips
{
	OFFSET 0.000000 0.000000 0.000000
	CHANNELS 6 Xposition Yposition Zposition Xrotation Yrotation Zrotation
	JOINT LeftUpLeg_virtual
	{
		OFFSET 0.000000 0.000000 0.000000
		CHANNELS 3 Xrotation Yrotation Zrotation
		JOINT LeftUpLeg
		{
			OFFSET 13.026900 -6.336304 -1.092800
			CHANNELS 3 Xrotation Yrotation Zrotation
			JOINT LeftLeg
			{
				OFFSET 0.524474 -46.096886 9.782700
				CHANNELS 3 Xrotation Yrotation Zrotation
				JOINT LeftFoot
				{
					OFFSET -0.524474 -53.427422 -12.948200
					CHANNELS 3 Xrotation Yrotation Zrotation
					JOINT LeftToeBase
					{
						OFFSET 0.192200 -14.009700 16.364100
						CHANNELS 3 Xrotation Yrotation Zrotation
						JOINT LeftToe_End
						{
							OFFSET -1.784700 -0.561700 9.474800
							CHANNELS 3 Xrotation Yrotation Zrotation
							End Site
							{
								OFFSET 0 0 0
							}
						}
					}
				}
			}
		}
	}
	JOINT RightUpLeg_virtual
	{
		OFFSET 0.000000 0.000000 0.000000
		CHANNELS 3 Xrotation Yrotation Zrotation
		JOINT RightUpLeg
		{
			OFFSET -12.883000 -6.336304 -1.092800
			CHANNELS 3 Xrotation Yrotation Zrotation
			JOINT RightLeg
			{
				OFFSET -0.524587 -46.096825 9.782800
				CHANNELS 3 Xrotation Yrotation Zrotation
				JOINT RightFoot
				{
					OFFSET 0.524587 -53.427383 -12.948300
					CHANNELS 3 Xrotation Yrotation Zrotation
					JOINT RightToeBase
					{
						OFFSET -0.192200 -14.009700 16.364100
						CHANNELS 3 Xrotation Yrotation Zrotation
						JOINT RightToe_End
						{
							OFFSET 1.784700 -0.561700 9.474800
							CHANNELS 3 Xrotation Yrotation Zrotation
							End Site
							{
								OFFSET 0 0 0
							}
						}
					}
				}
			}
		}
	}
	JOINT Spine_virtual
	{
		OFFSET 0.000000 0.000000 0.000000
		CHANNELS 3 Xrotation Yrotation Zrotation
		JOINT Spine
		{
			OFFSET 0.072000 7.257294 -0.789700
			CHANNELS 3 Xrotation Yrotation Zrotation
			JOINT Spine1
			{
				OFFSET 0.000000 12.508769 -0.658067
				CHANNELS 3 Xrotation Yrotation Zrotation
				JOINT Spine1_split
				{
					OFFSET 0.000000 12.508769 -0.658067
					CHANNELS 3 Xrotation Yrotation Zrotation
					JOINT Spine2
					{
						OFFSET 0.000000 12.508769 -0.658067
						CHANNELS 3 Xrotation Yrotation Zrotation
						JOINT Neck_virtual
						{
							OFFSET 0.000000 0.000000 0.000000
							CHANNELS 3 Xrotation Yrotation Zrotation
							JOINT Neck
							{
								OFFSET 0.000000 14.033295 7.520400
								CHANNELS 3 Xrotation Yrotation Zrotation
								JOINT Head
								{
									OFFSET 0.000000 8.198502 5.703100
									CHANNELS 3 Xrotation Yrotation Zrotation
									JOINT HeadTop_End
									{
										OFFSET 0.000000 17.760803 13.332701
										CHANNELS 3 Xrotation Yrotation Zrotation
										End Site
										{
											OFFSET 0 0 0
										}
									}
								}
							}
						}
						JOINT LeftShoulder_virtual
						{
							OFFSET 0.000000 0.000000 0.000000
							CHANNELS 3 Xrotation Yrotation Zrotation
							JOINT LeftShoulder
							{
								OFFSET 6.292450 5.785301 -0.669000
								CHANNELS 3 Xrotation Yrotation Zrotation
								JOINT LeftShoulder_split
								{
									OFFSET 6.292450 5.785301 -0.669000
									CHANNELS 3 Xrotation Yrotation Zrotation
									JOINT LeftArm
									{
										OFFSET 13.907140 -6.093903 1.965100
										CHANNELS 3 Xrotation Yrotation Zrotation
										JOINT LeftForeArm
										{
											OFFSET 34.140198 0.000000 0.000000
											CHANNELS 3 Xrotation Yrotation Zrotation
											JOINT LeftHand
											{
												OFFSET 40.960209 0.000000 0.000000
												CHANNELS 3 Xrotation Yrotation Zrotation
												End Site
												{
													OFFSET 0 0 0
												}
											}
										}
									}
								}
							}
						}
						JOINT RightShoulder_virtual
						{
							OFFSET 0.000000 0.000000 0.000000
							CHANNELS 3 Xrotation Yrotation Zrotation
							JOINT RightShoulder
							{
								OFFSET -6.292450 5.785301 -0.669000
								CHANNELS 3 Xrotation Yrotation Zrotation
								JOINT RightShoulder_split
								{
									OFFSET -6.292450 5.785301 -0.669000
									CHANNELS 3 Xrotation Yrotation Zrotation
									JOINT RightArm
									{
										OFFSET -13.907140 -6.093903 1.965100
										CHANNELS 3 Xrotation Yrotation Zrotation
										JOINT RightForeArm
										{
											OFFSET -34.140198 0.000000 0.000000
											CHANNELS 3 Xrotation Yrotation Zrotation
											JOINT RightHand
											{
												OFFSET -40.960209 0.000000 0.000000
												CHANNELS 3 Xrotation Yrotation Zrotation
												End Site
												{
													OFFSET 0 0 0
												}
											}
										}
									}
								}
							}
						}
					}
				}
			}
		}
	}
}
MOTION
Frames: 10
Frame Time: 0.03333333
-0.089207 105.492798 0.268578 0.000000 0.000000 0.000000 -4.641916 -46.137033 -2.689796 -32.987720 4.551133 10.321942 33.366690 -10.425055 2.438557 -0.389895 -0.686504 -5.761364 -1.237630 -1.916513 0.187947 0.000000 0.000000 0.000000 -5.505509 -45.234178 -2.719539 -1.893509 -12.348740 -15.411931 25.178751 -7.652813 -0.484935 -17.517728 -5.491810 20.058129 -2.872496 -0.432514 0.125021 0.000000 0.000000 0.000000 -3.454091 -43.056256 -1.876784 6.042787 5.313615 -0.955342 12.595004 9.402136 -3.161277 1.044082 -1.369508 0.654991 0.000000 0.000000 0.000000 12.276466 9.129402 -3.240081 -4.129068 -1.974064 0.365876 -4.508438 21.866333 -1.306126 0.000000 0.000000 0.000000 12.155180 9.344737 -3.064299 1.903426 -0.035312 -7.180610 -2.735249 -3.174689 -0.615760 -14.657992 3.836274 -61.379427 8.859173 -46.774327 5.321445 0.000000 0.000000 0.000000 12.233473 9.337971 -3.279887 1.439050 10.111589 11.640646 -1.912056 3.191823 -0.540419 3.615442 -21.312849 61.196248 -5.975855 41.682776 7.990011 0.000000 0.000000 0.000000 
-0.088058 105.502594 0.341805 0.000000 0.000000 0.000000 -4.578088 -46.119872 -2.656601 -32.992495 4.521963 10.314429 33.316242 -10.421317 2.433707 -0.436450 -0.670750 -5.733770 -1.198704 -1.920940 0.192976 0.000000 0.000000 0.000000 -5.405276 -45.201758 -2.684815 -1.888440 -12.250316 -15.410642 25.224317 -7.600622 -0.518937 -17.523422 -5.505215 20.095561 -2.859361 -0.439064 0.139321 0.000000 0.000000 0.000000 -3.351743 -43.057519 -1.840847 6.011603 5.309106 -0.953025 12.557725 9.371621 -3.175075 1.098653 -1.477685 0.654071 0.000000 0.000000 0.000000 12.270715 9.102176 -3.229550 -4.095249 -1.848271 0.297381 -4.504198 22.003584 -1.244857 0.000000 0.000000 0.000000 12.129706 9.314428 -3.072888 1.916474 -0.049474 -7.237253 -2.685746 -3.153952 -0.488467 -14.684685 3.760397 -61.360254 8.909482 -46.910081 5.353717 0.000000 0.000000 0.000000 12.200747 9.307886 -3.257580 1.453064 10.092099 11.634739 -2.008413 3.264358 -0.489704 3.628053 -21.277446 61.211636 -5.936965 41.566687 7.956414 0.000000 0.000000 0.000000 
-0.075224 105.527298 0.389271 0.000000 0.000000 0.000000 -4.479988 -46.150813 -2.605271 -32.968316 4.485889 10.298207 33.218908 -10.399442 2.448811 -0.516918 -0.637627 -5.743891 -1.155623 -1.925743 0.192591 0.000000 0.000000 0.000000 -5.306635 -45.206348 -2.640038 -1.975871 -12.207618 -15.412037 25.306785 -7.538825 -0.571631 -17.506125 -5.534491 20.145908 -2.851678 -0.451473 0.136210 0.000000 0.000000 0.000000 -3.224416 -43.065941 -1.797830 6.003767 5.289474 -0.949935 12.523738 9.318470 -3.179242 1.107710 -1.527592 0.679946 0.000000 0.000000 0.000000 12.244180 9.051386 -3.224622 -4.045766 -1.697966 0.238332 -4.415117 22.359727 -1.231147 0.000000 0.000000 0.000000 12.107617 9.254475 -3.079281 1.930955 -0.069368 -7.269402 -2.650161 -3.119262 -0.383202 -14.730775 3.723075 -61.371415 8.963386 -47.068510 5.395434 0.000000 0.000000 0.000000 12.176110 9.256018 -3.232807 1.459994 10.068417 11.640949 -2.054001 3.293712 -0.453191 3.583262 -21.168250 61.213781 -5.861491 41.363475 7.881045 0.000000 0.000000 0.000000 
-0.064999 105.546471 0.396919 0.000000 0.000000 0.000000 -4.359475 -46.217107 -2.536693 -32.929541 4.448251 10.273498 33.111241 -10.364162 2.480380 -0.600868 -0.590063 -5.795051 -1.125100 -1.929592 0.186949 0.000000 0.000000 0.000000 -5.211962 -45.232275 -2.581396 -2.161231 -12.225276 -15.419499 25.430854 -7.466041 -0.638287 -17.455194 -5.570850 20.235395 -2.849360 -0.468947 0.121244 0.000000 0.000000 0.000000 -3.098609 -43.076750 -1.750749 6.019058 5.254751 -0.948756 12.492398 9.240799 -3.172574 1.053630 -1.524513 0.721343 0.000000 0.000000 0.000000 12.205564 8.976155 -3.222529 -3.998485 -1.515004 0.182044 -4.273223 22.966554 -1.288887 0.000000 0.000000 0.000000 12.085379 9.163864 -3.079200 1.944985 -0.094834 -7.282477 -2.642798 -3.055151 -0.310377 -14.767846 3.747649 -61.405361 9.023129 -47.269024 5.451857 0.000000 0.000000 0.000000 12.151077 9.180556 -3.204412 1.462950 10.038576 11.637694 -2.068943 3.283905 -0.444855 3.497227 -21.022557 61.193174 -5.770583 41.110721 7.782138 0.000000 0.000000 0.000000 
-0.052327 105.554131 0.378426 0.000000 0.000000 0.000000 -4.237515 -46.300155 -2.459179 -32.900314 4.422982 10.242851 33.024894 -10.318607 2.517559 -0.656105 -0.532624 -5.869138 -1.099752 -1.934019 0.177806 0.000000 0.000000 0.000000 -5.131239 -45.260962 -2.514891 -2.389450 -12.310761 -15.417378 25.561157 -7.383879 -0.721235 -17.392317 -5.604681 20.339323 -2.875351 -0.489451 0.100644 0.000000 0.000000 0.000000 -2.997331 -43.089321 -1.698389 6.050612 5.207428 -0.948488 12.467680 9.137033 -3.160735 0.995559 -1.485942 0.741697 0.000000 0.000000 0.000000 12.162612 8.873415 -3.221500 -3.977702 -1.285078 0.115951 -4.124917 23.844481 -1.439954 0.000000 0.000000 0.000000 12.064797 9.039021 -3.073399 1.957352 -0.122572 -7.284696 -2.635098 -2.987136 -0.295749 -14.787090 3.812700 -61.450413 9.108266 -47.527895 5.532560 0.000000 0.000000 0.000000 12.122294 9.079524 -3.174606 1.462519 10.006515 11.614707 -2.054899 3.250130 -0.453187 3.392147 -20.878124 61.159952 -5.694730 40.873307 7.686561 0.000000 0.000000 0.000000 
-0.036498 105.552177 0.354378 0.000000 0.000000 0.000000 -4.126379 -46.375212 -2.373663 -32.891186 4.423167 10.205692 32.968155 -10.263715 2.548891 -0.672924 -0.477594 -5.940757 -1.070691 -1.941342 0.168000 0.000000 0.000000 0.000000 -5.064689 -45.278601 -2.440287 -2.592254 -12.459309 -15.388230 25.656666 -7.314027 -0.824312 -17.352302 -5.636581 20.409519 -2.938997 -0.509290 0.085485 0.000000 0.000000 0.000000 -2.940020 -43.100290 -1.638940 6.083113 5.149828 -0.947623 12.446656 9.005295 -3.151023 0.941356 -1.425371 0.742565 0.000000 0.000000 0.000000 12.119722 8.738867 -3.222737 -4.010050 -0.990290 0.023177 -3.997262 25.016654 -1.703026 0.000000 0.000000 0.000000 12.046412 8.881274 -3.065864 1.969566 -0.148336 -7.287369 -2.585271 -2.971231 -0.305838 -14.783012 3.885138 -61.496571 9.227069 -47.833533 5.637294 0.000000 0.000000 0.000000 12.086311 8.948793 -3.144683 1.458525 9.979785 11.561539 -1.998364 3.207923 -0.465476 3.278342 -20.760010 61.123137 -5.650998 40.701538 7.614537 0.000000 0.000000 0.000000 
-0.019483 105.552841 0.352692 0.000000 0.000000 0.000000 -4.028002 -46.428047 -2.267112 -32.888628 4.471624 10.163727 32.927051 -10.202808 2.564981 -0.683326 -0.433174 -5.977189 -1.023181 -1.954985 0.161002 0.000000 0.000000 0.000000 -5.021524 -45.276627 -2.360368 -2.734084 -12.658088 -15.327976 25.695848 -7.287655 -0.943632 -17.343913 -5.656974 20.407705 -3.018584 -0.525176 0.086853 0.000000 0.000000 0.000000 -2.921437 -43.118329 -1.566568 6.116737 5.088677 -0.948277 12.425735 8.847825 -3.149639 0.910749 -1.372963 0.752400 0.000000 0.000000 0.000000 12.078063 8.575226 -3.228296 -4.115455 -0.618330 -0.100127 -3.905575 26.479574 -2.081136 0.000000 0.000000 0.000000 12.034705 8.694342 -3.058881 1.981982 -0.169286 -7.288343 -2.512068 -2.960392 -0.327805 -14.762248 3.914177 -61.530005 9.360965 -48.128894 5.740736 0.000000 0.000000 0.000000 12.043046 8.788430 -3.119468 1.451413 9.967287 11.481532 -1.943316 3.153732 -0.446671 3.165537 -20.670301 61.092238 -5.632958 40.589724 7.566327 0.000000 0.000000 0.000000 
-0.001930 105.572006 0.348686 0.000000 0.000000 0.000000 -3.934067 -46.442250 -2.128862 -32.879137 4.567875 10.109047 32.883300 -10.157740 2.567597 -0.730781 -0.425974 -5.983020 -0.978690 -1.975623 0.169826 0.000000 0.000000 0.000000 -4.996055 -45.257284 -2.267198 -2.818008 -12.872755 -15.251637 25.680509 -7.311704 -1.070034 -17.339480 -5.651617 20.372188 -3.121786 -0.537768 0.108721 0.000000 0.000000 0.000000 -2.928792 -43.137153 -1.471844 6.156756 5.030061 -0.948966 12.401553 8.672300 -3.158110 0.925431 -1.354454 0.766009 0.000000 0.000000 0.000000 12.035088 8.390340 -3.239198 -4.309436 -0.159396 -0.243791 -3.851612 28.201834 -2.560175 0.000000 0.000000 0.000000 12.030123 8.488367 -3.055138 1.993957 -0.178961 -7.293762 -2.414763 -2.939602 -0.349571 -14.720456 3.873805 -61.543174 9.488943 -48.329251 5.815078 0.000000 0.000000 0.000000 12.005219 8.606597 -3.105923 1.436978 9.975096 11.391956 -1.913803 3.095754 -0.380820 3.076938 -20.586767 61.076159 -5.622367 40.484655 7.531535 0.000000 0.000000 0.000000 
0.002196 105.614311 0.357292 0.000000 0.000000 0.000000 -3.851244 -46.420790 -1.966359 -32.844863 4.687638 10.025657 32.802964 -10.151087 2.567890 -0.829095 -0.469844 -6.003323 -0.966663 -2.000679 0.204659 0.000000 0.000000 0.000000 -4.984176 -45.235072 -2.152392 -2.867522 -13.039707 -15.177457 25.623680 -7.378034 -1.195003 -17.304860 -5.601384 20.399120 -3.300085 -0.549792 0.142197 0.000000 0.000000 0.000000 -2.956517 -43.149037 -1.361038 6.206006 4.975418 -0.948624 12.371122 8.492127 -3.173901 0.941231 -1.385134 0.775529 0.000000 0.000000 0.000000 11.994493 8.200739 -3.253840 -4.593134 0.382061 -0.389753 -3.817864 30.135782 -3.114096 0.000000 0.000000 0.000000 12.032095 8.279744 -3.053304 2.002604 -0.174923 -7.302291 -2.325493 -2.894975 -0.376994 -14.636395 3.776762 -61.528919 9.583272 -48.407607 5.838709 0.000000 0.000000 0.000000 11.975640 8.416481 -3.102803 1.413317 10.004368 11.304353 -1.918439 3.048517 -0.283696 3.023673 -20.488793 61.057697 -5.594281 40.320799 7.493131 0.000000 0.000000 0.000000 
0.001761 105.668869 0.384945 0.000000 0.000000 0.000000 -3.778743 -46.369041 -1.791458 -32.795601 4.797799 9.904967 32.705446 -10.185333 2.581855 -0.960615 -0.536274 -6.065929 -0.979689 -2.025267 0.260355 0.000000 0.000000 0.000000 -4.975760 -45.209179 -2.025745 -2.900164 -13.092029 -15.120866 25.557758 -7.481478 -1.313914 -17.249462 -5.490701 20.530560 -3.533859 -0.560484 0.173186 0.000000 0.000000 0.000000 -3.001688 -43.141742 -1.248646 6.267986 4.926079 -0.944847 12.339878 8.321017 -3.192355 0.946571 -1.412660 0.795530 0.000000 0.000000 0.000000 11.960270 8.022409 -3.270504 -4.956304 0.990428 -0.521636 -3.781647 32.218416 -3.705953 0.000000 0.000000 0.000000 12.043543 8.082119 -3.048764 2.006481 -0.151211 -7.310063 -2.261539 -2.826720 -0.446463 -14.516356 3.646406 -61.481893 9.643602 -48.385811 5.810969 0.000000 0.000000 0.000000 11.952596 8.232470 -3.104605 1.379588 10.053116 11.223496 -1.932129 2.998413 -0.186046 2.993775 -20.367240 61.027330 -5.535808 40.075875 7.442119 0.000000 0.000000 0.000000 
